<?xml version="1.0" encoding="UTF-8" standalone="no"?>
<!-- Created with Inkscape (http://www.inkscape.org/) -->

<svg
   xmlns:dc="http://purl.org/dc/elements/1.1/"
   xmlns:cc="http://creativecommons.org/ns#"
   xmlns:rdf="http://www.w3.org/1999/02/22-rdf-syntax-ns#"
   xmlns:svg="http://www.w3.org/2000/svg"
   xmlns="http://www.w3.org/2000/svg"
   xmlns:sodipodi="http://sodipodi.sourceforge.net/DTD/sodipodi-0.dtd"
   xmlns:inkscape="http://www.inkscape.org/namespaces/inkscape"
   id="svg2"
   version="1.1"
   inkscape:version="0.48.2 r9819"
   width="2140.1575"
   height="2140.1575"
   xml:space="preserve"
   sodipodi:docname="Fig._32_a_-_Divieto_di_sorpasso_fra_gli_autotreni_-_1959.svg"><metadata
     id="metadata8"><rdf:RDF><cc:Work
         rdf:about=""><dc:format>image/svg+xml</dc:format><dc:type
           rdf:resource="http://purl.org/dc/dcmitype/StillImage" /><dc:title /></cc:Work></rdf:RDF></metadata><defs
     id="defs6" /><sodipodi:namedview
     pagecolor="#ffffff"
     bordercolor="#666666"
     borderopacity="1"
     objecttolerance="10"
     gridtolerance="10"
     guidetolerance="10"
     inkscape:pageopacity="0"
     inkscape:pageshadow="2"
     inkscape:window-width="1189"
     inkscape:window-height="804"
     id="namedview4"
     showgrid="false"
     inkscape:zoom="0.22144696"
     inkscape:cx="1153.0096"
     inkscape:cy="1147.6217"
     inkscape:window-x="0"
     inkscape:window-y="0"
     inkscape:window-maximized="0"
     inkscape:current-layer="g10"
     showguides="true"
     inkscape:guide-bbox="true"
     fit-margin-top="0"
     fit-margin-left="0"
     fit-margin-right="0"
     fit-margin-bottom="0"
     units="mm" /><g
     id="g10"
     inkscape:groupmode="layer"
     inkscape:label="Fig._35_-_Transito_vietato_alle_biciclette_-_1959"
     transform="matrix(1.25,0,0,-1.25,-640.95318,2777.1131)"><g
       id="g3142"
       transform="matrix(1.0018235,0,0,1.0018235,511.14431,507.95014)"><g
         id="g14"
         transform="matrix(1,0,0,-1,0,1712.126)"><path
           d="m 1703.699,858.477 c 0,467.703 -379.144,846.847 -846.847,846.847 C 389.148,1705.324 10,1326.18 10,858.477 10,390.773 389.148,11.625 856.852,11.625 c 467.703,0 846.847,379.148 846.847,846.852 z"
           style="fill:#ffffff;fill-opacity:1;fill-rule:evenodd;stroke:#000000;stroke-width:3.99271941;stroke-linecap:butt;stroke-linejoin:miter;stroke-miterlimit:4;stroke-opacity:1;stroke-dasharray:none"
           id="path16"
           inkscape:connector-curvature="0" /></g><path
         d="m 856.762,1684.013 c -457.418,0 -828.223,-371.805 -828.223,-830.453 0,-458.645 370.805,-830.45 828.223,-830.45 457.418,0 828.222,371.805 828.222,830.45 0,458.648 -370.804,830.453 -828.222,830.453 z m 0.273,-213.821 c 337.926,0 611.891,-275.808 611.891,-615.996 0,-340.183 -273.965,-615.902 -611.891,-615.902 -337.93,0 -611.801,275.719 -611.801,615.902 0,340.188 273.871,615.996 611.801,615.996 z"
         style="fill:#d40000;fill-opacity:1;fill-rule:evenodd;stroke:none"
         id="path18"
         inkscape:connector-curvature="0" /></g></g></svg>