<?xml version="1.0" standalone="no"?>
<!DOCTYPE svg PUBLIC "-//W3C//DTD SVG 1.1//EN" "http://www.w3.org/Graphics/SVG/1.1/DTD/svg11.dtd">
<!--Generator: Xara Designer (www.xara.com), SVG filter version: 3.0.2.3-->
<svg stroke-width="0.501" stroke-linejoin="bevel" fill-rule="evenodd" xmlns:xlink="http://www.w3.org/1999/xlink" xmlns="http://www.w3.org/2000/svg" version="1.1" overflow="visible" width="566.931pt" height="566.931pt" viewBox="0 0 566.931 566.931">
 <defs>
  <marker id="DefaultArrow2" markerUnits="strokeWidth" viewBox="0 0 1 1" markerWidth="1" markerHeight="1" overflow="visible" orient="auto">
   <!-- REF_ARROW_STRAIGHT (-2) -->
   <g transform="scale(0.0092592592)">
    <!-- 1/108 -->
    <path d="M -9 54 L -9 -54 L 117 0 z"/>
   </g>
  </marker>
  <marker id="DefaultArrow3" markerUnits="strokeWidth" viewBox="0 0 1 1" markerWidth="1" markerHeight="1" overflow="visible" orient="auto">
   <!-- REF_ARROW_ANGLED -->
   <g transform="scale(0.0092592592)">
    <path d="M -27 54 L -9 0 L -27 -54 L 135 0 z"/>
   </g>
  </marker>
  <marker id="DefaultArrow4" markerUnits="strokeWidth" viewBox="0 0 1 1" markerWidth="1" markerHeight="1" overflow="visible" orient="auto">
   <!-- REF_ARROW_ROUNDED -->
   <g transform="scale(0.0092592592)">
    <path d="M -9,0 L -9,-45 C -9,-51.708 2.808,-56.580 9,-54 L 117,-9 C 120.916,-7.369 126.000,-4.242 126,0 C 126,4.242 120.916,7.369 117,9 L 9,54 C 2.808,56.580 -9,51.708 -9,45 z"/>
   </g>
  </marker>
  <marker id="DefaultArrow5" markerUnits="strokeWidth" viewBox="0 0 1 1" markerWidth="1" markerHeight="1" overflow="visible" orient="auto">
   <!-- REF_ARROW_SPOT -->
   <g transform="scale(0.0092592592)">
    <path d="M -54, 0 C -54,29.807 -29.807,54 0,54 C 29.807,54 54,29.807 54,0 C 54,-29.807 29.807,-54 0,-54 C -29.807,-54 -54,-29.807 -54,0 z"/>
   </g>
  </marker>
  <marker id="DefaultArrow6" markerUnits="strokeWidth" viewBox="0 0 1 1" markerWidth="1" markerHeight="1" overflow="visible" orient="auto">
   <!-- REF_ARROW_DIAMOND -->
   <g transform="scale(0.0092592592)">
    <path d="M -63,0 L 0,63 L 63,0 L 0,-63 z"/>
   </g>
  </marker>
  <marker id="DefaultArrow7" markerUnits="strokeWidth" viewBox="0 0 1 1" markerWidth="1" markerHeight="1" overflow="visible" orient="auto">
   <!-- REF_ARROW_FEATHER -->
   <g transform="scale(0.0092592592)">
    <path d="M 18,-54 L 108,-54 L 63,0 L 108,54 L 18, 54 L -36,0 z"/>
   </g>
  </marker>
  <marker id="DefaultArrow8" markerUnits="strokeWidth" viewBox="0 0 1 1" markerWidth="1" markerHeight="1" overflow="visible" orient="auto">
   <!-- REF_ARROW_FEATHER2 -->
   <g transform="scale(0.0092592592)">
    <path d="M -36,0 L 18,-54 L 54,-54 L 18,-18 L 27,-18 L 63,-54 L 99,-54 L 63,-18 L 72,-18 L 108,-54 L 144,-54 L 90,0 L 144,54 L 108,54 L 72,18 L 63,18 L 99,54 L 63,54 L 27,18 L 18,18 L 54,54 L 18,54 z"/>
   </g>
  </marker>
  <marker id="DefaultArrow9" markerUnits="strokeWidth" viewBox="0 0 1 1" markerWidth="1" markerHeight="1" overflow="visible" orient="auto">
   <!-- REF_ARROW_HOLLOWDIAMOND -->
   <g transform="scale(0.0092592592)">
    <path d="M 0,45 L -45,0 L 0, -45 L 45, 0 z M 0, 63 L-63, 0 L 0, -63 L 63, 0 z"/>
   </g>
  </marker>
  <filter id="StainedFilter">
   <feBlend mode="multiply" in2="BackgroundImage" in="SourceGraphic" result="blend"/>
   <feComposite in="blend" in2="SourceAlpha" operator="in" result="comp"/>
  </filter>
  <filter id="BleachFilter">
   <feBlend mode="screen" in2="BackgroundImage" in="SourceGraphic" result="blend"/>
   <feComposite in="blend" in2="SourceAlpha" operator="in" result="comp"/>
  </filter>
  <filter id="InvertTransparencyBitmapFilter">
   <feComponentTransfer>
    <feFuncR type="gamma" amplitude="1.055" exponent=".416666666" offset="-0.055"/>
    <feFuncG type="gamma" amplitude="1.055" exponent=".416666666" offset="-0.055"/>
    <feFuncB type="gamma" amplitude="1.055" exponent=".416666666" offset="-0.055"/>
   </feComponentTransfer>
   <feComponentTransfer>
    <feFuncR type="linear" slope="-1" intercept="1"/>
    <feFuncG type="linear" slope="-1" intercept="1"/>
    <feFuncB type="linear" slope="-1" intercept="1"/>
    <feFuncA type="linear" slope="1" intercept="0"/>
   </feComponentTransfer>
   <feComponentTransfer>
    <feFuncR type="gamma" amplitude="1" exponent="2.4" offset="0"/>
    <feFuncG type="gamma" amplitude="1" exponent="2.4" offset="0"/>
    <feFuncB type="gamma" amplitude="1" exponent="2.4" offset="0"/>
   </feComponentTransfer>
  </filter>
  <linearGradient id="LinearGradient" gradientUnits="userSpaceOnUse" x1="0" y1="0" x2="389.588" y2="0" gradientTransform="translate(206.384 377.731) rotate(-44.7831) skewX(-0.180357)">
   <stop offset="0" stop-color="#2f2f39"/>
   <stop offset="1" stop-color="#9393a6"/>
  </linearGradient>
  <linearGradient id="LinearGradient_1" gradientUnits="userSpaceOnUse" x1="0" y1="0" x2="361.344" y2="0" gradientTransform="translate(457.914 133.584) rotate(135.497) skewX(-0.180982)">
   <stop offset="0" stop-color="#f4f4f6"/>
   <stop offset="1" stop-color="#a1a2c0"/>
  </linearGradient>
  <linearGradient id="LinearGradient_2" gradientUnits="userSpaceOnUse" x1="0" y1="0" x2="369.694" y2="0" gradientTransform="translate(389.156 196.343) rotate(136.042) skewX(-0.180477)">
   <stop offset="0" stop-color="#f4f4f6"/>
   <stop offset="1" stop-color="#a1a2c0"/>
  </linearGradient>
  <linearGradient id="LinearGradient_3" gradientUnits="userSpaceOnUse" x1="0" y1="0" x2="61.288" y2="0" gradientTransform="translate(236.62 370.468) rotate(-80.4057)">
   <stop offset="0" stop-color="#f4f4f6"/>
   <stop offset="1" stop-color="#ffffff"/>
  </linearGradient>
  <linearGradient id="LinearGradient_4" gradientUnits="userSpaceOnUse" x1="0" y1="0" x2="61.288" y2="0" gradientTransform="translate(236.62 370.468) rotate(-80.4057)">
   <stop offset="0" stop-color="#ffffff"/>
   <stop offset="1" stop-color="#000000"/>
  </linearGradient>
  <linearGradient id="LinearGradient_5" gradientUnits="userSpaceOnUse" x1="0" y1="0" x2="18.15" y2="0" gradientTransform="translate(344.845 269.207) rotate(-141.961) skewX(0.201241)">
   <stop offset="0" stop-color="#ffffff"/>
   <stop offset="1" stop-color="#ffffff"/>
  </linearGradient>
  <linearGradient id="LinearGradient_6" gradientUnits="userSpaceOnUse" x1="0" y1="0" x2="18.15" y2="0" gradientTransform="translate(344.845 269.207) rotate(-141.961) skewX(0.201241)">
   <stop offset="0" stop-color="#ffffff"/>
   <stop offset="1" stop-color="#000000"/>
  </linearGradient>
  <linearGradient id="LinearGradient_7" gradientUnits="userSpaceOnUse" x1="0" y1="0" x2="28.939" y2="0" gradientTransform="translate(350.03 226.519) rotate(14.5515)">
   <stop offset="0" stop-color="#f4f4f6"/>
   <stop offset="1" stop-color="#a1a2c0"/>
  </linearGradient>
  <linearGradient id="LinearGradient_8" gradientUnits="userSpaceOnUse" x1="0" y1="0" x2="29.846" y2="0" gradientTransform="translate(353.413 226.551) rotate(0.877329)">
   <stop offset="0" stop-color="#f4f4f6"/>
   <stop offset="1" stop-color="#a1a2c0"/>
  </linearGradient>
  <linearGradient id="LinearGradient_9" gradientUnits="userSpaceOnUse" x1="0" y1="0" x2="22.717" y2="0" gradientTransform="translate(321.178 330.209) rotate(-45.9684)">
   <stop offset="0" stop-color="#b2b2bf"/>
   <stop offset="1" stop-color="#151519"/>
  </linearGradient>
  <linearGradient id="LinearGradient_10" gradientUnits="userSpaceOnUse" x1="0" y1="0" x2="8.694" y2="0" gradientTransform="translate(307.833 308.197) rotate(-44.4968)">
   <stop offset="0" stop-color="#f4f4f6"/>
   <stop offset="1" stop-color="#a1a2c0"/>
  </linearGradient>
  <linearGradient id="LinearGradient_11" gradientUnits="userSpaceOnUse" x1="0" y1="0" x2="33.381" y2="0" gradientTransform="translate(339.03 329.062) rotate(56.1462)">
   <stop offset="0" stop-color="#f4f4f6"/>
   <stop offset="1" stop-color="#a1a2c0"/>
  </linearGradient>
  <linearGradient id="LinearGradient_12" gradientUnits="userSpaceOnUse" x1="0" y1="0" x2="135.089" y2="0" gradientTransform="translate(215.488 190.649) rotate(64.9389)">
   <stop offset="0" stop-color="#ff372c"/>
   <stop offset="1" stop-color="#a11f18"/>
  </linearGradient>
  <linearGradient id="LinearGradient_13" gradientUnits="userSpaceOnUse" x1="0" y1="0" x2="25.777" y2="0" gradientTransform="translate(260.298 276.85) rotate(-45.7701)">
   <stop offset="0" stop-color="#ffffff"/>
   <stop offset="1" stop-color="#ffffff"/>
  </linearGradient>
  <linearGradient id="LinearGradient_14" gradientUnits="userSpaceOnUse" x1="0" y1="0" x2="25.777" y2="0" gradientTransform="translate(260.298 276.85) rotate(-45.7701)">
   <stop offset="0" stop-color="#ffffff"/>
   <stop offset="1" stop-color="#000000"/>
  </linearGradient>
  <linearGradient id="LinearGradient_15" gradientUnits="userSpaceOnUse" x1="0" y1="0" x2="103.19" y2="0" gradientTransform="translate(231.979 465.321) rotate(-0.345917)">
   <stop offset="0" stop-color="#fd5e03"/>
   <stop offset="1" stop-color="#d60202"/>
  </linearGradient>
  <linearGradient id="LinearGradient_16" gradientUnits="userSpaceOnUse" x1="0" y1="0" x2="64.332" y2="0" gradientTransform="translate(274.032 436.257) rotate(74.9904)">
   <stop offset="0" stop-color="#ff9800"/>
   <stop offset="1" stop-color="#fffb07"/>
  </linearGradient>
  <radialGradient id="RadialGradient" gradientUnits="userSpaceOnUse" cx="0" cy="0" r="45.4" gradientTransform="translate(280.498 460.801) rotate(-14.2545) scale(1 0.565771)">
   <stop offset="0" stop-color="#ff9800"/>
   <stop offset="1" stop-color="#fffb07"/>
  </radialGradient>
 </defs>
 <g id="Document" fill="none" stroke="black" font-family="Times New Roman" font-size="16" transform="scale(1 -1)">
  <g id="Spread" transform="translate(0 -566.931)">
   <g id="Layer 1">
    <path d="M -4.879,570.474 L -4.879,-6.281 L 574.274,-6.281 L 574.274,570.474 L -4.879,570.474 Z" stroke="none" fill="#ffffff" stroke-width="2.035" stroke-linejoin="miter" marker-start="none" marker-end="none" stroke-miterlimit="79.8403193612775"/>
    <g id="Group" stroke-linejoin="miter" stroke="none" stroke-miterlimit="79.8403193612775">
     <path d="M 165.585,398.841 C 213.471,463.608 304.904,477.307 369.673,429.418 C 434.44,381.53 448.137,290.098 400.252,225.33 C 352.367,160.561 260.931,146.865 196.165,194.753 C 131.399,242.641 117.7,334.074 165.585,398.841 Z" fill="#339966" stroke-width="2.034" marker-start="none" marker-end="none" stroke-miterlimit="5.98802395209581"/>
     <path d="M 187.433,423.695 L 283.927,327.2 L 380.421,423.695 L 283.927,520.189 L 187.433,423.695 Z" fill="#ffffff" stroke-width="2.71" marker-start="none" marker-end="none" stroke-miterlimit="5.98802395209581"/>
    </g>
   </g>
   <g id="SVG Document">
    <path d="M 284.816,379.212 L 353.963,451.695 L 423.111,524.178 L 282.202,523.285 L 141.292,522.391 L 213.053,450.802 L 284.816,379.212 Z" stroke="none" fill="#990000" stroke-width="2.125" stroke-linejoin="miter" marker-start="none" marker-end="none" stroke-miterlimit="79.8403193612775"/>
    <path d="M 456.08,504.075 L 407.325,455.321 C 446.761,420.632 471.657,369.803 471.657,313.152 C 471.657,208.61 386.906,123.862 282.364,123.862 C 177.819,123.862 93.071,208.61 93.071,313.152 C 93.071,369.803 117.966,420.632 157.4,455.321 L 108.646,504.076 C 56.787,456.865 24.237,388.811 24.237,313.152 C 24.237,170.593 139.801,55.025 282.364,55.025 C 424.925,55.025 540.488,170.593 540.488,313.152 C 540.488,388.81 507.939,456.864 456.08,504.075 Z" stroke="none" fill="#006699" stroke-width="1.911" stroke-linejoin="miter" marker-start="none" marker-end="none" stroke-miterlimit="79.8403193612775"/>
    <g id="Group_1" fill-rule="nonzero" stroke-linejoin="round" stroke-linecap="round" stroke="none" stroke-width="0.734" fill="#ffffff" stroke-miterlimit="79.8403193612775">
     <path d="M 89.673,259.735 L 90.546,254.097 L 48.308,263.938 L 48.115,265.16 L 78.299,283.101 L 44.078,291.17 L 43.89,292.389 L 81.169,314.511 L 82.053,308.815 L 56.464,293.672 L 85.449,286.939 L 86.287,281.555 L 60.709,266.294 L 89.673,259.735 Z" marker-start="none" marker-end="none"/>
     <path d="M 73.208,237.293 L 62.555,233.804 C 61.698,233.525 61.371,233.092 61.563,232.511 C 61.755,231.914 62.506,231.122 63.815,230.138 L 60.793,229.153 C 59.693,230.039 58.903,230.787 58.417,231.376 C 57.927,231.974 57.566,232.643 57.319,233.383 C 56.625,235.514 57.049,237.039 58.592,237.966 C 56.274,239.542 54.72,241.518 53.939,243.897 C 53.369,245.64 53.474,247.286 54.242,248.826 C 55.014,250.367 56.276,251.418 58.02,251.99 C 59.6,252.508 61.195,252.408 62.815,251.674 C 64.434,250.945 65.943,249.658 67.354,247.808 L 71.613,242.172 L 72.948,242.608 C 75.963,243.593 76.984,245.597 75.99,248.613 C 75.102,251.32 72.845,253.498 69.205,255.146 L 74.63,256.916 C 77.529,255.738 79.571,253.336 80.761,249.721 C 81.642,247.017 81.646,244.611 80.767,242.515 C 80.491,241.819 80.047,241.128 79.432,240.448 C 78.824,239.762 78.162,239.239 77.448,238.876 C 76.729,238.512 75.32,237.983 73.208,237.293 Z M 61.507,238.86 L 68.945,241.294 L 66.573,244.204 C 65.348,245.673 64.281,246.646 63.372,247.122 C 62.461,247.595 61.497,247.667 60.475,247.334 C 59.44,246.997 58.705,246.389 58.272,245.513 C 57.833,244.634 57.79,243.67 58.134,242.616 C 58.647,241.032 59.774,239.779 61.507,238.86 Z" marker-start="none" marker-end="none"/>
     <path d="M 87.562,230.344 L 82.062,227.828 L 82.598,227.759 C 87.35,227.158 90.249,225.709 91.303,223.417 C 92.124,221.627 92.076,219.348 91.16,216.572 L 85.843,217.163 C 86.647,219.532 86.729,221.416 86.087,222.823 C 85.387,224.353 84.05,225.349 82.077,225.798 C 80.102,226.251 78.117,226.017 76.12,225.102 L 63.579,219.358 L 61.394,224.133 L 85.375,235.12 L 87.562,230.344 Z" marker-start="none" marker-end="none"/>
     <path d="M 89.303,216.547 L 102.516,212.749 L 97.773,210.069 L 101.877,202.807 L 97.783,200.49 L 93.677,207.757 L 82.419,201.392 C 79.79,199.907 79.089,198.074 80.319,195.896 C 81.242,194.263 82.767,192.848 84.891,191.658 L 80.643,189.264 C 78.677,190.451 77.105,192.078 75.944,194.145 C 74.767,196.226 74.395,198.296 74.832,200.368 C 74.95,201.007 75.164,201.598 75.458,202.139 C 75.752,202.678 76.222,203.255 76.855,203.87 C 77.489,204.472 78.845,205.37 80.923,206.542 L 91.11,212.299 L 88.856,216.293 L 89.303,216.547 Z" marker-start="none" marker-end="none"/>
     <path d="M 91.334,171.775 L 94.062,173.738 C 92.438,173.934 90.935,174.419 89.565,175.185 C 88.192,175.95 87.089,176.908 86.265,178.059 C 85.295,179.407 84.741,180.899 84.598,182.527 C 84.451,184.153 84.749,185.672 85.489,187.082 C 86.223,188.495 87.942,190.167 90.627,192.094 L 102.904,200.91 L 105.947,196.666 L 93.717,187.889 C 91.467,186.275 90.121,184.823 89.695,183.535 C 89.264,182.249 89.629,180.8 90.785,179.183 C 92.233,177.169 94.455,176.156 97.444,176.157 L 112.771,187.166 L 115.812,182.926 L 94.378,167.54 L 91.334,171.775 Z" marker-start="none" marker-end="none"/>
     <path d="M 121.928,175.731 L 119.448,173.465 C 122.93,173.489 125.667,172.409 127.674,170.222 C 128.783,169.009 129.498,167.597 129.831,165.974 C 130.159,164.357 130.024,162.778 129.426,161.235 C 128.832,159.693 127.353,157.838 124.984,155.667 L 113.857,145.476 L 110.336,149.326 L 121.419,159.477 C 123.404,161.294 124.544,162.901 124.843,164.291 C 125.14,165.674 124.636,167.085 123.332,168.509 C 121.67,170.324 119.343,171.032 116.363,170.634 L 102.47,157.915 L 98.869,161.844 L 118.325,179.663 L 121.928,175.731 Z" marker-start="none" marker-end="none"/>
     <path d="M 129.532,154.296 C 131.389,156.402 133.631,157.395 136.252,157.264 C 138.874,157.133 141.524,155.894 144.189,153.547 L 152.353,146.366 L 149.661,143.312 L 145.657,146.833 C 145.739,145.362 145.644,144.168 145.377,143.262 C 145.11,142.346 144.61,141.475 143.879,140.643 C 142.966,139.608 141.781,138.853 140.317,138.375 C 138.849,137.893 137.422,137.795 136.025,138.078 C 134.636,138.364 132.742,139.273 130.359,140.813 C 128.687,141.902 127.504,142.044 126.793,141.238 C 126.387,140.78 126.333,140.16 126.628,139.377 C 126.922,138.597 127.655,137.41 128.825,135.821 C 130.782,133.153 131.977,131.366 132.412,130.454 C 132.842,129.542 133.092,128.558 133.159,127.502 C 133.268,125.721 132.697,124.119 131.437,122.678 C 129.779,120.801 127.623,120.037 124.969,120.384 C 122.308,120.739 119.585,122.143 116.781,124.607 C 113.957,127.095 112.193,129.643 111.503,132.251 C 110.807,134.868 111.292,137.119 112.957,139.01 C 115.318,141.695 118.494,141.968 122.493,139.827 C 121.922,141.833 121.998,143.258 122.729,144.088 C 123.282,144.718 124.076,145.043 125.094,145.059 C 126.116,145.08 127.216,144.789 128.39,144.185 C 126.615,148.038 126.997,151.408 129.532,154.296 Z M 139.926,151.261 C 138.865,152.196 137.646,152.632 136.267,152.569 C 134.893,152.513 133.759,151.981 132.88,150.975 C 131.977,149.955 131.602,148.79 131.75,147.476 C 131.894,146.165 132.523,145.019 133.645,144.034 C 134.749,143.059 135.97,142.586 137.309,142.619 C 138.65,142.651 139.769,143.178 140.664,144.198 C 141.575,145.231 141.956,146.421 141.822,147.768 C 141.676,149.112 141.047,150.274 139.926,151.261 Z M 123.755,134.747 C 122.432,135.906 121.111,136.575 119.774,136.754 C 118.442,136.935 117.394,136.586 116.62,135.709 C 114.831,133.67 115.771,131.039 119.442,127.801 C 121.18,126.275 122.751,125.348 124.154,125.014 C 125.553,124.688 126.665,124.988 127.489,125.922 C 128.296,126.84 128.353,128.122 127.656,129.766 C 126.965,131.402 125.661,133.065 123.755,134.747 Z" marker-start="none" marker-end="none"/>
     <path d="M 138.326,126.525 L 141.619,131.081 C 142.202,129.381 142.937,127.818 143.808,126.404 C 144.681,124.978 145.539,123.956 146.393,123.34 C 147.276,122.705 148.19,122.373 149.138,122.35 C 150.089,122.319 150.782,122.609 151.221,123.217 C 151.667,123.834 151.835,124.5 151.721,125.206 C 151.609,125.911 151.152,127.145 150.346,128.908 C 148.717,132.397 147.868,134.988 147.808,136.673 C 147.745,138.36 148.171,139.841 149.087,141.108 C 150.275,142.751 151.884,143.629 153.913,143.743 C 155.942,143.855 157.964,143.181 159.976,141.725 C 162.062,140.212 163.786,138.072 165.136,135.303 L 162.111,131.122 C 160.696,134.453 159.193,136.701 157.598,137.855 C 156.778,138.446 155.989,138.751 155.234,138.766 C 154.479,138.785 153.895,138.506 153.482,137.93 C 153.119,137.437 153.009,136.798 153.139,136.021 C 153.271,135.235 153.683,134.119 154.367,132.654 L 155.255,130.7 C 157.359,126.112 157.529,122.592 155.755,120.138 C 154.491,118.392 152.767,117.457 150.582,117.323 C 148.399,117.191 146.231,117.902 144.083,119.462 C 142.807,120.376 141.775,121.336 140.98,122.319 C 140.186,123.308 139.301,124.711 138.326,126.525 Z" marker-start="none" marker-end="none"/>
     <path d="M 176.342,146.154 L 180.875,143.572 L 173.179,130.038 C 175.957,130.351 178.458,129.878 180.684,128.61 C 183.592,126.958 185.345,124.509 185.943,121.269 C 186.54,118.028 185.863,114.686 183.909,111.244 C 181.809,107.558 179.039,105.243 175.595,104.311 C 172.152,103.372 168.584,103.958 164.894,106.05 C 163.412,106.892 161.947,107.937 160.489,109.182 C 159.029,110.429 157.964,111.572 157.266,112.599 L 176.342,146.154 Z M 170.718,125.698 L 163.657,113.285 C 164.94,111.938 166.398,110.807 168.025,109.878 C 170.035,108.739 172.085,108.522 174.169,109.225 C 176.252,109.932 177.93,111.408 179.205,113.651 C 180.5,115.929 180.962,118.117 180.585,120.227 C 180.205,122.331 179.065,123.927 177.154,125.008 C 175.454,125.973 173.315,126.201 170.718,125.698 Z" marker-start="none" marker-end="none"/>
     <path d="M 204.084,105.172 L 199.615,94.892 C 199.255,94.067 199.359,93.531 199.921,93.283 C 200.5,93.033 201.59,93.07 203.192,93.4 L 201.919,90.476 C 200.527,90.247 199.446,90.15 198.678,90.182 C 197.915,90.213 197.167,90.391 196.449,90.7 C 194.397,91.592 193.54,92.927 193.872,94.696 C 191.154,94.005 188.645,94.155 186.346,95.153 C 184.664,95.883 183.505,97.05 182.865,98.648 C 182.231,100.252 182.274,101.896 183.008,103.578 C 183.667,105.1 184.812,106.228 186.425,106.954 C 188.043,107.674 190.013,107.954 192.337,107.775 L 199.376,107.218 L 199.938,108.508 C 201.205,111.411 200.382,113.506 197.467,114.767 C 194.855,115.906 191.725,115.661 188.081,114.033 L 190.354,119.269 C 193.167,120.653 196.32,120.587 199.805,119.068 C 202.422,117.932 204.217,116.337 205.204,114.285 C 205.532,113.621 205.756,112.828 205.861,111.916 C 205.967,111.008 205.918,110.165 205.714,109.386 C 205.511,108.611 204.968,107.207 204.084,105.172 Z M 195.135,97.463 L 198.257,104.638 L 194.509,104.794 C 192.6,104.854 191.161,104.709 190.198,104.343 C 189.239,103.98 188.546,103.304 188.122,102.324 C 187.685,101.328 187.649,100.373 188.017,99.459 C 188.382,98.555 189.075,97.875 190.091,97.432 C 191.618,96.776 193.298,96.78 195.135,97.463 Z" marker-start="none" marker-end="none"/>
     <path d="M 221.829,82.822 L 222.771,86.042 C 221.366,85.201 219.888,84.661 218.334,84.415 C 216.781,84.179 215.322,84.257 213.969,84.653 C 212.371,85.122 211.015,85.953 209.905,87.147 C 208.791,88.345 208.089,89.723 207.801,91.292 C 207.516,92.859 207.839,95.231 208.768,98.399 L 213.028,112.905 L 218.037,111.43 L 213.793,96.987 C 213.013,94.325 212.848,92.362 213.298,91.081 C 213.751,89.805 214.929,88.888 216.838,88.326 C 219.223,87.624 221.591,88.189 223.942,90.031 L 229.259,108.137 L 234.269,106.667 L 226.831,81.354 L 221.829,82.822 Z" marker-start="none" marker-end="none"/>
     <path d="M 233.108,81.895 L 234.15,87.417 C 235.402,86.122 236.726,85.025 238.118,84.109 C 239.513,83.197 240.725,82.642 241.757,82.445 C 242.829,82.242 243.803,82.33 244.673,82.715 C 245.539,83.088 246.043,83.649 246.185,84.38 C 246.327,85.129 246.195,85.804 245.792,86.396 C 245.386,86.987 244.449,87.908 242.971,89.167 C 240.015,91.628 238.147,93.606 237.375,95.108 C 236.593,96.607 236.353,98.129 236.642,99.667 C 237.022,101.661 238.1,103.138 239.888,104.099 C 241.681,105.068 243.793,105.32 246.232,104.856 C 248.773,104.38 251.233,103.175 253.637,101.237 L 252.674,96.167 C 249.981,98.586 247.665,99.974 245.726,100.343 C 244.734,100.531 243.89,100.471 243.201,100.16 C 242.514,99.858 242.098,99.357 241.968,98.657 C 241.855,98.06 242.024,97.434 242.477,96.787 C 242.925,96.13 243.776,95.295 245.017,94.261 L 246.652,92.873 C 250.51,89.614 252.157,86.497 251.597,83.528 C 251.196,81.408 250.032,79.823 248.116,78.774 C 246.197,77.725 243.929,77.45 241.319,77.944 C 239.779,78.236 238.439,78.663 237.297,79.215 C 236.156,79.772 234.76,80.667 233.108,81.895 Z" marker-start="none" marker-end="none"/>
     <path d="M 254.783,98.506 L 265.48,107.138 L 264.953,101.713 L 273.256,100.906 L 272.8,96.226 L 264.496,97.039 L 263.236,84.164 C 262.942,81.157 264.04,79.534 266.533,79.287 C 268.395,79.108 270.426,79.543 272.622,80.595 L 272.152,75.743 C 270.042,74.82 267.808,74.467 265.449,74.701 C 263.069,74.936 261.158,75.818 259.719,77.367 C 259.264,77.834 258.901,78.34 258.628,78.898 C 258.354,79.452 258.152,80.163 258.014,81.032 C 257.878,81.904 257.926,83.523 258.16,85.901 L 259.298,97.547 L 254.731,97.991 L 254.783,98.506 Z" marker-start="none" marker-end="none"/>
     <path d="M 298.24,87.135 L 279.689,87.084 C 279.829,84.557 280.683,82.55 282.24,81.066 C 283.806,79.578 285.82,78.84 288.286,78.847 C 291.729,78.86 294.899,79.939 297.796,82.088 L 297.813,76.986 C 296.21,75.909 294.619,75.136 293.046,74.676 C 291.47,74.21 289.62,73.976 287.5,73.971 C 284.592,73.958 282.24,74.558 280.441,75.758 C 278.638,76.954 277.194,78.568 276.109,80.606 C 275.021,82.636 274.476,84.989 274.467,87.665 C 274.457,91.681 275.585,94.951 277.85,97.472 C 280.115,99.991 283.066,101.255 286.696,101.264 C 290.197,101.276 292.996,100.064 295.083,97.619 C 297.173,95.178 298.225,91.908 298.237,87.795 L 298.24,87.135 Z M 279.79,90.207 L 293.07,90.244 C 292.929,92.327 292.303,93.934 291.191,95.058 C 290.078,96.184 288.587,96.745 286.712,96.736 C 284.838,96.731 283.305,96.161 282.115,95.031 C 280.922,93.898 280.15,92.287 279.79,90.207 Z" marker-start="none" marker-end="none"/>
     <path d="M 303.231,112.593 C 304.088,112.67 304.843,112.433 305.51,111.905 C 306.17,111.369 306.54,110.674 306.621,109.816 C 306.697,108.979 306.455,108.226 305.899,107.561 C 305.348,106.896 304.64,106.531 303.783,106.452 C 302.98,106.377 302.25,106.621 301.587,107.185 C 300.926,107.752 300.552,108.442 300.482,109.262 C 300.407,110.063 300.649,110.799 301.198,111.472 C 301.753,112.145 302.433,112.519 303.231,112.593 Z M 301.659,101.306 L 306.856,101.773 L 309.226,75.502 L 304.026,75.03 L 301.659,101.306 Z" marker-start="none" marker-end="none"/>
     <path d="M 317.52,103.042 L 318.075,99.734 C 319.945,102.666 322.343,104.38 325.261,104.869 C 326.886,105.145 328.465,104.98 329.998,104.375 C 331.536,103.766 332.789,102.8 333.761,101.456 C 334.736,100.122 335.483,97.863 336.022,94.699 L 338.52,79.825 L 333.378,78.959 L 330.881,93.778 C 330.434,96.438 329.711,98.267 328.703,99.269 C 327.701,100.277 326.252,100.617 324.346,100.293 C 321.913,99.888 320.055,98.321 318.767,95.604 L 321.897,77.025 L 316.637,76.142 L 312.26,102.161 L 317.52,103.042 Z" marker-start="none" marker-end="none"/>
     <path d="M 368.767,116.639 L 374.087,118.385 L 371.407,89.247 L 369.857,88.739 L 356.676,103.755 L 355.121,83.891 L 353.513,83.361 L 333.957,105.187 L 339.273,106.938 L 350.83,93.894 L 352.211,111.186 L 355.892,112.4 L 367.23,99.288 L 368.767,116.639 Z" marker-start="none" marker-end="none"/>
     <path d="M 398.787,116.528 L 382.208,108.209 C 383.456,106.016 385.111,104.597 387.173,103.964 C 389.233,103.33 391.369,103.565 393.568,104.673 C 396.646,106.218 399.006,108.595 400.642,111.813 L 402.933,107.251 C 401.974,105.575 400.898,104.175 399.693,103.057 C 398.493,101.942 396.938,100.91 395.045,99.952 C 392.444,98.651 390.072,98.135 387.924,98.404 C 385.782,98.674 383.766,99.477 381.89,100.815 C 380.011,102.149 378.47,104.012 377.269,106.406 C 375.471,109.991 375.026,113.419 375.93,116.689 C 376.836,119.955 378.909,122.401 382.154,124.032 C 385.284,125.599 388.33,125.757 391.286,124.509 C 394.247,123.255 396.65,120.792 398.495,117.116 L 398.787,116.528 Z M 380.911,111.054 L 392.773,117.008 C 391.721,118.812 390.444,119.968 388.944,120.479 C 387.448,120.985 385.866,120.823 384.192,119.982 C 382.514,119.143 381.4,117.952 380.833,116.411 C 380.27,114.862 380.297,113.08 380.911,111.054 Z" marker-start="none" marker-end="none"/>
     <path d="M 394.344,124.951 L 397.508,138.333 L 400.413,133.72 L 407.473,138.171 L 409.978,134.188 L 402.918,129.744 L 409.815,118.807 C 411.422,116.25 413.286,115.636 415.405,116.971 C 416.99,117.968 418.332,119.561 419.419,121.735 L 422.016,117.611 C 420.916,115.589 419.368,113.941 417.365,112.68 C 415.343,111.403 413.288,110.935 411.201,111.269 C 410.558,111.363 409.958,111.543 409.4,111.817 C 408.844,112.088 408.249,112.521 407.609,113.124 C 406.97,113.728 406.013,115.041 404.738,117.062 L 398.505,126.965 L 394.62,124.515 L 394.344,124.951 Z" marker-start="none" marker-end="none"/>
     <path d="M 409.395,134.268 L 411.42,147.866 L 414.702,143.516 L 421.362,148.544 L 424.194,144.793 L 417.535,139.764 L 425.329,129.441 C 427.149,127.028 429.057,126.581 431.055,128.088 C 432.551,129.219 433.747,130.915 434.654,133.176 L 437.591,129.288 C 436.666,127.174 435.259,125.406 433.366,123.977 C 431.463,122.537 429.456,121.897 427.348,122.058 C 426.697,122.093 426.084,122.221 425.51,122.443 C 424.932,122.666 424.301,123.055 423.612,123.602 C 422.925,124.147 421.855,125.377 420.417,127.278 L 413.373,136.619 L 409.707,133.854 L 409.395,134.268 Z" marker-start="none" marker-end="none"/>
     <path d="M 414.075,160.014 L 417.926,163.54 L 428.442,152.058 C 428.996,154.794 430.213,157.026 432.106,158.758 C 434.571,161.014 437.441,161.931 440.711,161.502 C 443.979,161.077 446.949,159.402 449.625,156.485 C 452.49,153.354 453.838,150.009 453.669,146.443 C 453.5,142.879 451.844,139.666 448.715,136.797 C 447.46,135.652 446.02,134.572 444.387,133.567 C 442.751,132.566 441.338,131.892 440.145,131.553 L 414.075,160.014 Z M 431.808,148.377 L 441.454,137.845 C 443.127,138.653 444.655,139.69 446.038,140.955 C 447.746,142.513 448.581,144.395 448.549,146.599 C 448.518,148.796 447.633,150.849 445.887,152.751 C 444.116,154.686 442.174,155.797 440.055,156.085 C 437.936,156.372 436.064,155.772 434.445,154.294 C 433.009,152.971 432.129,151.004 431.808,148.377 Z" marker-start="none" marker-end="none"/>
     <path d="M 467.644,176.153 L 455.551,162.087 C 457.552,160.546 459.626,159.877 461.771,160.089 C 463.92,160.296 465.795,161.336 467.403,163.205 C 469.649,165.818 470.906,168.919 471.176,172.517 L 475.045,169.189 C 474.806,167.275 474.351,165.569 473.669,164.074 C 472.991,162.577 471.959,161.027 470.577,159.42 C 468.681,157.214 466.693,155.826 464.604,155.25 C 462.522,154.67 460.354,154.636 458.106,155.143 C 455.856,155.655 453.722,156.784 451.692,158.525 C 448.649,161.143 446.914,164.132 446.49,167.495 C 446.07,170.863 447.037,173.921 449.414,176.671 C 451.692,179.329 454.437,180.644 457.652,180.633 C 460.865,180.617 464.031,179.263 467.146,176.588 L 467.644,176.153 Z M 453.257,164.214 L 461.912,174.283 C 460.246,175.537 458.623,176.114 457.045,176.01 C 455.464,175.9 454.067,175.14 452.844,173.72 C 451.62,172.298 451.048,170.766 451.128,169.128 C 451.203,167.489 451.912,165.852 453.257,164.214 Z" marker-start="none" marker-end="none"/>
     <path d="M 476.006,213.419 L 479.012,218.135 L 495.378,193.884 L 494.495,192.508 L 474.791,195.792 L 486.149,179.425 L 485.243,178.001 L 456.29,182.528 L 459.296,187.244 L 476.51,184.461 L 466.626,198.725 L 468.706,201.987 L 485.79,199.014 L 476.006,213.419 Z" marker-start="none" marker-end="none"/>
     <path d="M 499.734,232.292 L 491.946,215.454 C 494.293,214.516 496.471,214.44 498.479,215.231 C 500.486,216.02 502.007,217.534 503.044,219.774 C 504.487,222.894 504.849,226.224 504.124,229.764 L 508.757,227.616 C 509.051,225.711 509.08,223.944 508.835,222.323 C 508.587,220.697 508.018,218.922 507.132,216.994 C 505.912,214.358 504.38,212.479 502.525,211.354 C 500.684,210.228 498.607,209.601 496.307,209.472 C 494.005,209.351 491.64,209.848 489.211,210.971 C 485.567,212.656 483.083,215.06 481.756,218.18 C 480.425,221.299 480.529,224.509 482.047,227.803 C 483.518,230.976 485.801,232.998 488.895,233.862 C 491.994,234.725 495.406,234.299 499.134,232.569 L 499.734,232.292 Z M 489.157,216.873 L 494.732,228.925 C 492.785,229.675 491.066,229.785 489.578,229.254 C 488.083,228.72 486.95,227.606 486.164,225.903 C 485.376,224.202 485.243,222.575 485.765,221.016 C 486.29,219.46 487.418,218.075 489.157,216.873 Z" marker-start="none" marker-end="none"/>
     <path d="M 489.897,245.999 L 495.632,244.078 L 495.287,244.493 C 492.23,248.177 491.104,251.22 491.905,253.612 C 492.528,255.481 494.123,257.11 496.685,258.512 L 500.164,254.445 C 497.956,253.265 496.604,251.945 496.113,250.478 C 495.581,248.885 495.881,247.245 497.008,245.567 C 498.138,243.887 499.747,242.699 501.836,241.997 L 514.908,237.621 L 513.246,232.644 L 488.233,241.019 L 489.897,245.999 Z" marker-start="none" marker-end="none"/>
     <path d="M 481.125,262.637 L 482.217,267.739 L 497.442,264.468 C 496.309,267.017 496.013,269.548 496.547,272.049 C 497.254,275.321 499.056,277.729 501.971,279.274 C 504.888,280.819 508.277,281.173 512.144,280.346 C 516.293,279.453 519.331,277.507 521.259,274.503 C 523.182,271.497 523.704,267.922 522.811,263.772 C 522.449,262.108 521.897,260.396 521.146,258.626 C 520.395,256.865 519.633,255.5 518.86,254.532 L 481.125,262.637 Z M 502.318,263.419 L 516.283,260.422 C 517.183,262.047 517.825,263.773 518.222,265.607 C 518.703,267.868 518.296,269.887 516.994,271.665 C 515.693,273.443 513.785,274.595 511.261,275.14 C 508.699,275.687 506.471,275.466 504.578,274.476 C 502.682,273.484 501.504,271.916 501.043,269.767 C 500.633,267.856 501.059,265.746 502.318,263.419 Z" marker-start="none" marker-end="none"/>
    </g>
    <g id="Group_2" stroke-linejoin="miter" stroke="none" stroke-width="1.613" stroke-miterlimit="79.8403193612775">
     <path d="M 268.163,275.911 C 268.135,277.748 264.882,278.373 256.019,278.238 C 223.232,277.736 198.518,300.797 197.988,332.39 C 197.87,339.399 198.949,348.084 200.387,351.691 C 204.606,362.273 208.188,360.696 226.654,342.635 C 243.417,326.245 246.572,321.173 254.856,330.527 C 263.281,340.037 260.463,342.088 243.879,358.136 C 225.151,376.268 221.331,379.593 232.14,384.318 C 254.993,394.316 285.93,383.073 299.367,359.893 C 304.221,351.515 305.391,347.19 306.26,334.285 C 307.194,320.471 307.87,318.24 312.377,314.04 C 367.051,260.104 297.538,328.445 362.389,264.831 C 383.674,244.152 397.807,230.594 396.305,228.675 C 394.664,224.312 363.428,191.482 360.425,191.494 C 359.372,190.336 343.496,205.469 325.995,222.381 C 269.479,276.343 333.134,216.638 268.163,275.911 Z" marker-start="none" marker-end="none" fill="url(#LinearGradient)"/>
     <path d="M 247.176,384.641 C 241.542,383.701 232.802,383.172 229.489,378.327 C 238.189,364.344 255.459,356.314 262.408,341.079 C 263.375,332.824 255.85,324.39 248.075,322.672 C 236.225,323.963 230.101,336.902 221.134,343.476 C 216.243,347.053 211.9,354.41 205.689,354.729 C 198.278,340.998 200.306,322.319 207.255,308.391 C 217.627,288.176 241.88,280.643 265.331,282.555 C 275.431,282.214 273.687,275.428 283.368,266.603 C 308.72,244.198 329.655,222.974 360.697,194.991 C 372.177,206.84 380.927,215.907 392.678,228.893 C 361.326,262.324 330.684,289.445 302.983,319.427 C 302.691,325.519 305.779,347.566 295.371,360.286 C 284.957,376.133 266.01,385.764 247.176,384.641 Z M 229.434,378.826 L 229.383,378.775 L 229.434,378.826 Z" marker-start="none" marker-end="none" fill="url(#LinearGradient_1)"/>
     <path d="M 247.325,381.42 C 243.052,380.533 236.832,380.534 233.822,377.684 C 243.277,364.117 261.858,356.333 265.705,339.371 C 265.547,326.629 249.804,313.678 238.377,322.829 C 227.349,331.238 218.986,343.039 207.504,351.025 C 197.251,326.399 211.427,294.453 237.663,287.441 C 247.486,283.089 262.032,287.619 272.103,285.145 C 302.673,254.964 329.901,226.973 360.982,199.329 C 371.884,210.19 379.125,217.753 388.661,228.63 C 359.123,258.862 326.915,288.726 299.981,318.793 C 299.913,332.028 302.771,349.997 289.814,362.417 C 279.842,374.822 263.543,382.393 247.325,381.42 Z" marker-start="none" marker-end="none" fill="url(#LinearGradient_2)"/>
     <mask id="TranspMask">
      <rect x="-10%" y="-10%" width="120%" height="120%" fill="url(#LinearGradient_4)" stroke="none"/>
     </mask>
     <path d="M 247.474,378.197 C 241.202,377.967 235.598,376.693 243.355,371.679 C 253.454,361.996 269.071,352.213 268.664,336.395 C 266.919,321.682 247.254,309.739 235.342,321.117 C 226.009,328.19 217.887,339.513 208.945,345.403 C 201.463,320.43 219.236,292.385 245.833,288.828 C 270.526,290.522 289.867,293.608 296.123,314.529 C 298.902,336.901 295.14,348.304 284.52,363.597 C 274.923,373.391 261.122,379.038 247.474,378.197 Z" marker-start="none" marker-end="none" mask="url(#TranspMask)" fill="url(#LinearGradient_3)"/>
     <mask id="TranspMask_1">
      <rect x="-10%" y="-10%" width="120%" height="120%" fill="url(#LinearGradient_6)" stroke="none"/>
     </mask>
     <path d="M 298.822,312.262 C 291.874,301.333 284.366,292.794 273.628,286.293 C 301.256,257.062 330.95,230.19 360.87,203.411 C 369.613,213.137 376.949,219.883 384.647,228.367 C 354.957,259.099 326.208,283.278 299.014,312.616 L 298.822,312.262 Z" marker-start="none" marker-end="none" mask="url(#TranspMask_1)" fill="url(#LinearGradient_5)"/>
     <path d="M 371.052,226.84 C 371.139,221.176 366.504,216.51 360.7,216.421 C 354.893,216.331 350.117,220.854 350.03,226.519 C 349.943,232.184 354.579,236.849 360.385,236.938 C 366.19,237.027 370.966,232.506 371.052,226.84 Z" fill-rule="nonzero" marker-start="none" marker-end="none" fill="url(#LinearGradient_7)"/>
     <path d="M 359.684,233.662 C 351.388,233.333 351.259,220.027 359.698,219.704 C 369.607,218.613 371.385,233.93 359.684,233.662 Z" fill-rule="nonzero" marker-start="none" marker-end="none" fill="url(#LinearGradient_8)"/>
    </g>
    <g id="Group_3" stroke-linejoin="miter" stroke="none" stroke-width="1.387" stroke-miterlimit="79.8403193612775">
     <g id="Group_4">
      <path d="M 273.694,278.398 C 325.698,328.792 329.942,334.664 330.143,337.14 C 330.758,344.796 331.378,346.73 339.465,351.052 C 348.942,356.118 356.295,359.125 356.709,358.243 C 357.142,357.187 363.379,352.461 363.213,350.165 C 363.047,347.868 355.902,333.991 352.511,328.907 C 349.083,323.761 349.813,327.514 341.589,325.88 C 338.855,325.337 337.25,322.758 283.635,269.355" fill-rule="nonzero" fill="url(#LinearGradient_9)"/>
      <path d="M 355.199,355.327 C 348.055,351.612 338.319,349.71 333.794,342.72 C 334.097,335.147 329.167,329.588 324.072,324.602 C 309.088,308.848 293.368,293.655 277.724,278.459 C 280.294,273.354 278.39,275.175 284.544,275.098 C 299.268,288.883 322.191,315.562 337.725,328.203 C 341.884,330.402 350.071,326.533 351.559,332.58 C 354.23,338.521 359.495,346.397 360.193,351.615 C 358.786,353.003 356.849,354.549 355.199,355.327 Z" fill-rule="nonzero" marker-start="none" marker-end="none" fill="url(#LinearGradient_10)"/>
      <path d="M 356.811,354.111 L 359.59,351.388 C 359.59,351.388 351.925,337.789 349.188,335.055 C 346.74,332.604 339.388,335.055 339.388,335.055 C 339.388,335.055 338.3,342.812 339.93,344.309 C 341.878,346.096 356.811,354.111 356.811,354.111 Z" marker-start="none" marker-end="none" fill="url(#LinearGradient_11)"/>
     </g>
     <g id="Group_5">
      <path d="M 295.385,263.497 C 293.997,260.574 292.694,256.862 290.435,252.502 C 282.499,251.605 281.475,255.051 274.67,245.015 C 273.738,245.015 271.789,241.452 266.35,234.434 C 252.966,217.163 234.597,198.557 224.892,192.434 C 213.618,185.32 206.986,185.583 199.447,193.448 L 199.447,193.448 C 196.251,196.785 193.207,200.966 192.681,202.744 C 189.854,212.292 209.817,236.802 239.351,260.05 C 256.479,271.203 257.72,272.604 254.754,285.349 C 258.847,288.022 261.032,287.645 268.52,290.573" fill="#8b1f1f"/>
      <path d="M 201.443,196.826 C 198.689,199.967 195.449,203.247 195.449,204.712 C 195.449,214.717 214.639,236.509 241.39,256.881 C 256.301,268.236 260.102,272.237 260.102,281.416 C 260.102,283.229 261.873,285.12 264.512,286.125 C 268.663,287.702 267.662,286.599 278.733,275.272 C 289.058,264.713 291.305,263.259 290.067,259.904 C 289.294,257.802 288.286,255.627 286.585,255.586 C 273.798,255.288 277.162,255.712 267.748,243.481 C 254.352,226.067 231.966,201.986 223.012,196.226 C 213.001,189.783 205.836,192.046 201.443,196.826 Z" marker-start="none" marker-end="none" fill="url(#LinearGradient_12)"/>
      <mask id="TranspMask_2">
       <rect x="-10%" y="-10%" width="120%" height="120%" fill="url(#LinearGradient_14)" stroke="none"/>
      </mask>
      <path d="M 234.155,209.726 C 244.694,220.428 266.214,249.976 276.452,261.421 C 280.391,265.823 283.747,264.993 283.343,265.932 C 281.98,269.1 269.136,280.335 265.214,283.722 C 264.292,284.513 263.624,281.077 263.332,279.315 C 261.861,270.374 260.543,270.385 247.572,259.972 C 220.304,238.088 198.337,214.529 198.337,206.316 C 198.337,202.483 204.86,196.668 208.799,196.559 C 209.767,196.53 215.786,191.077 234.155,209.726 Z" marker-start="none" marker-end="none" mask="url(#TranspMask_2)" fill="url(#LinearGradient_13)"/>
     </g>
    </g>
    <g id="Group_6" stroke-linejoin="miter">
     <path d="M 261.934,511.885 L 274.88,497.957 L 279.271,516.46 L 286.674,498.943 L 297.127,514.828 L 298.092,495.836 L 313.348,507.188 L 307.76,489.011 L 325.979,494.46 L 314.511,479.291 L 333.493,478.181 L 317.53,467.849 L 334.987,460.313 L 316.452,456.065 L 330.281,443.012 L 311.411,445.359 L 319.94,428.363 L 303.01,437.023 L 305.213,418.135 L 292.266,432.063 L 287.875,413.561 L 280.473,431.077 L 270.02,415.193 L 269.053,434.183 L 253.798,422.833 L 259.386,441.009 L 241.169,435.559 L 252.636,450.728 L 233.653,451.839 L 249.617,462.17 L 232.159,469.708 L 250.694,473.955 L 236.866,487.008 L 255.736,484.662 L 247.208,501.657 L 264.136,492.998 L 261.934,511.885 Z" stroke="none" stroke-width="0.319" marker-start="none" marker-end="none" stroke-miterlimit="79.8403193612775" fill="url(#LinearGradient_15)"/>
     <path d="M 321.85,465.462 C 321.85,444.169 304.587,426.907 283.294,426.907 C 262.001,426.907 244.739,444.169 244.739,465.462 C 244.739,486.755 262.001,504.017 283.294,504.017 C 304.587,504.017 321.85,486.755 321.85,465.462 Z" stroke="#d60802" fill="#ff6503" stroke-width="1.606" marker-start="none" marker-end="none" stroke-miterlimit="79.8403193612775"/>
     <path d="M 319.432,465.462 C 319.432,445.504 303.253,429.323 283.294,429.323 C 263.336,429.323 247.155,445.504 247.155,465.462 C 247.155,485.42 263.336,501.601 283.294,501.601 C 303.253,501.601 319.432,485.42 319.432,465.462 Z" stroke="none" stroke-width="0.32" marker-start="none" marker-end="none" stroke-miterlimit="79.8403193612775" fill="url(#LinearGradient_16)"/>
     <path d="M 316.358,465.462 C 316.357,447.202 301.555,432.399 283.294,432.399 C 265.033,432.399 250.23,447.202 250.23,465.462 C 250.23,483.722 265.033,498.526 283.294,498.526 C 301.555,498.526 316.357,483.722 316.357,465.462 Z" stroke="none" stroke-width="0.293" marker-start="none" marker-end="none" stroke-miterlimit="79.8403193612775" fill="url(#RadialGradient)"/>
    </g>
   </g>
  </g>
 </g>
</svg>
