<?xml version="1.0" encoding="UTF-8" standalone="no"?>
<!-- Created with Inkscape (http://www.inkscape.org/) -->

<svg
   xmlns:osb="http://www.openswatchbook.org/uri/2009/osb"
   xmlns:dc="http://purl.org/dc/elements/1.1/"
   xmlns:cc="http://creativecommons.org/ns#"
   xmlns:rdf="http://www.w3.org/1999/02/22-rdf-syntax-ns#"
   xmlns:svg="http://www.w3.org/2000/svg"
   xmlns="http://www.w3.org/2000/svg"
   xmlns:sodipodi="http://sodipodi.sourceforge.net/DTD/sodipodi-0.dtd"
   xmlns:inkscape="http://www.inkscape.org/namespaces/inkscape"
   width="235.61984mm"
   height="147.44029mm"
   viewBox="0 0 235.61984 147.44029"
   version="1.1"
   id="svg8"
   inkscape:version="0.92.0 r15299"
   sodipodi:docname="icon.svg">
  <defs
     id="defs2">
    <linearGradient
       id="linearGradient5974"
       osb:paint="solid">
      <stop
         style="stop-color:#597a79;stop-opacity:1;"
         offset="0"
         id="stop5972" />
    </linearGradient>
  </defs>
  <sodipodi:namedview
     id="base"
     pagecolor="#ffffff"
     bordercolor="#666666"
     borderopacity="1.0"
     inkscape:pageopacity="0.0"
     inkscape:pageshadow="2"
     inkscape:zoom="0.7"
     inkscape:cx="518.11571"
     inkscape:cy="229.50534"
     inkscape:document-units="mm"
     inkscape:current-layer="g4492"
     showgrid="false"
     fit-margin-top="0"
     fit-margin-left="0"
     fit-margin-right="0"
     fit-margin-bottom="0"
     inkscape:window-width="1920"
     inkscape:window-height="1018"
     inkscape:window-x="1672"
     inkscape:window-y="-8"
     inkscape:window-maximized="1" />
  <metadata
     id="metadata5">
    <rdf:RDF>
      <cc:Work
         rdf:about="">
        <dc:format>image/svg+xml</dc:format>
        <dc:type
           rdf:resource="http://purl.org/dc/dcmitype/StillImage" />
        <dc:title></dc:title>
      </cc:Work>
    </rdf:RDF>
  </metadata>
  <g
     inkscape:label="Ebene 1"
     inkscape:groupmode="layer"
     id="layer1"
     transform="translate(0.47501466,-66.415378)">
    <g
       id="g4492"
       transform="matrix(1.1202338,0,0,1.1202338,0.19778533,-25.213779)">
      <rect
         style="opacity:1;fill:#ffffff;fill-opacity:0.99035369;stroke:#000000;stroke-width:0.3189806;stroke-linejoin:round;stroke-miterlimit:3.86400008;stroke-dasharray:none;stroke-opacity:1"
         id="rect4494"
         width="210.01198"
         height="131.29666"
         x="-0.4410986"
         y="81.954163" />
      <path
         id="path11098"
         d="m 146.97492,207.65368 h 24.41103 c 9.92468,0 19.57511,-10.65889 19.57511,-33.86314 0,-14.59859 -4.82503,-27.33112 -13.92588,-29.90219 v -0.16345 c 7.56189,-3.42157 12.02429,-15.30361 12.02429,-28.72072 0,-19.761702 -7.19889,-30.067532 -18.13508,-30.067532 h -23.94947 z m 5.73725,-9.26955 v -49.16648 h 17.12412 c 8.46287,0 15.29967,7.38211 15.29967,24.24122 0,17.16993 -6.64967,24.92526 -15.12379,24.92526 z m 0,-58.27013 V 94.203055 h 16.84914 c 7.73778,0 13.84893,6.718635 13.84893,22.520085 0,16.17465 -7.01231,23.39086 -14.67331,23.39086 z m 0,0"
         style="fill:#073057;fill-opacity:1;fill-rule:nonzero;stroke:none;stroke-width:3.86481714"
         inkscape:connector-curvature="0" />
      <path
         id="path11100"
         d="m 108.86872,209.70621 c 15.21154,0 26.32366,-16.48521 26.32366,-46.40838 V 85.100085 h -14.01371 v 77.347395 c 0,15.98818 -4.19865,24.24135 -12.03519,24.24135 -8.38615,0 -12.211055,-9.8084 -12.211055,-24.24135 V 85.100085 H 82.732043 v 79.752975 c 0,30.08893 10.386492,44.85315 26.136677,44.85315"
         style="fill:#073057;fill-opacity:1;fill-rule:nonzero;stroke:none;stroke-width:3.86481714"
         inkscape:connector-curvature="0" />
      <path
         id="path11102"
         d="m 59.837631,166.59503 c 9.078593,-9.70474 12.584711,-24.15826 12.584711,-38.75698 0,-24.0542 -9.122534,-42.800349 -22.597546,-42.800349 H 21.08317 V 207.57087 H 35.206669 V 106.68659 h 11.100992 c 7.913553,0 12.298955,8.89621 12.298955,21.15146 0,10.55495 -3.440215,21.23427 -12.200055,21.23427 h -8.902737 l 22.333807,58.49855 h 15.585312 z m 0,0"
         style="fill:#073057;fill-opacity:1;fill-rule:nonzero;stroke:none;stroke-width:3.86481714"
         inkscape:connector-curvature="0" />
    </g>
  </g>
</svg>
